<?xml version="1.0" standalone="no"?>
<!DOCTYPE svg PUBLIC "-//W3C//DTD SVG 20010904//EN"
 "http://www.w3.org/TR/2001/REC-SVG-20010904/DTD/svg10.dtd">
<svg version="1.0" xmlns="http://www.w3.org/2000/svg"
 width="320.000000pt" height="320.000000pt" viewBox="0 0 320.000000 320.000000"
 preserveAspectRatio="xMidYMid meet">
<metadata>
Created by potrace 1.16, written by Peter Selinger 2001-2019
</metadata>
<g transform="translate(0.000000,320.000000) scale(0.100000,-0.100000)"
fill="#000000" stroke="none">
<path d="M1420 3049 c-85 -8 -113 -14 -245 -51 -76 -22 -95 -29 -230 -93 -181
-85 -347 -221 -498 -405 -82 -100 -196 -314 -235 -440 -94 -302 -94 -618 0
-920 43 -141 171 -372 261 -472 169 -188 300 -292 472 -373 155 -73 166 -77
308 -115 254 -67 648 -41 877 57 267 115 400 211 597 431 90 100 218 331 261
472 94 302 94 618 0 920 -6 19 -17 51 -25 70 -116 268 -210 399 -431 597 -100
90 -331 218 -472 261 -210 65 -405 84 -640 61z m412 -590 c46 -23 88 -75 104
-128 34 -117 -71 -241 -205 -241 -82 0 -149 37 -192 106 -30 49 -26 139 8 191
59 91 183 122 285 72z m-157 -610 c57 -29 98 -82 116 -151 14 -53 1 -143 -45
-308 -15 -52 -33 -117 -41 -145 -7 -27 -21 -77 -30 -110 -24 -84 -25 -216 -3
-238 38 -39 123 -48 197 -22 45 16 46 14 35 -42 -5 -23 -14 -32 -42 -40 -21
-6 -77 -25 -125 -42 -149 -52 -299 -37 -377 39 -56 54 -65 81 -64 184 1 75 9
117 44 236 59 204 99 369 100 408 0 51 -27 99 -62 111 -42 15 -104 14 -158 -3
l-46 -14 10 43 10 42 95 31 c53 18 110 36 126 41 17 6 71 9 120 8 74 -2 99 -7
140 -28z"/>
</g>
</svg>
