<?xml version="1.0" standalone="no"?>
<!DOCTYPE svg PUBLIC "-//W3C//DTD SVG 20010904//EN"
 "http://www.w3.org/TR/2001/REC-SVG-20010904/DTD/svg10.dtd">
<svg version="1.0" xmlns="http://www.w3.org/2000/svg"
 width="752.000000pt" height="980.000000pt" viewBox="0 0 752.000000 980.000000"
 preserveAspectRatio="xMidYMid meet">
<metadata>
Created by potrace 1.16, written by Peter Selinger 2001-2019
</metadata>
<g transform="translate(0.000000,980.000000) scale(0.100000,-0.100000)"
fill="#000000" stroke="none">
<path d="M2945 9786 c-279 -54 -531 -267 -633 -534 -30 -76 -52 -187 -52 -256
l0 -36 -182 0 c-217 -1 -438 -14 -491 -30 -96 -28 -143 -111 -153 -272 l-7
-105 -426 -5 -427 -6 -94 -47 c-224 -112 -339 -230 -441 -452 l-39 -85 0
-3279 0 -3280 34 -72 c55 -115 112 -196 200 -282 90 -89 195 -157 285 -185
133 -42 172 -43 1834 -47 878 -2 1597 -1 1597 2 0 3 -27 64 -60 135 -81 176
-104 233 -129 318 l-22 72 -1147 1 c-631 0 -1307 4 -1502 8 -387 9 -405 12
-478 69 -71 57 -73 67 -83 411 -11 395 -11 5818 0 5932 9 100 25 132 101 203
l49 46 374 0 374 0 6 -123 c9 -173 38 -240 122 -284 47 -25 381 -32 1570 -32
1153 0 1458 6 1515 31 86 38 118 105 133 280 l11 129 360 -3 361 -3 55 -30
c30 -16 62 -43 72 -60 40 -71 41 -111 45 -2117 l4 -1927 32 -5 c18 -3 85 -10
151 -16 108 -10 305 -42 342 -57 14 -5 15 195 11 1983 -4 2033 -6 2103 -43
2233 -74 257 -348 493 -617 530 -44 6 -232 11 -426 11 l-348 0 -6 88 c-8 120
-34 187 -103 256 l-54 56 -243 1 c-133 1 -282 4 -331 8 l-90 6 -17 97 c-31
176 -80 288 -181 413 -112 140 -292 258 -458 300 -90 22 -268 28 -355 11z
m272 -454 c234 -74 341 -315 238 -540 -72 -157 -212 -240 -384 -230 -180 12
-327 148 -361 336 -34 190 103 397 294 443 57 13 153 9 213 -9z"/>
<path d="M2218 7189 c-34 -13 -172 -179 -391 -471 l-171 -227 -51 67 c-87 115
-163 203 -201 233 -67 53 -161 34 -202 -40 -37 -67 -36 -90 4 -158 49 -81 302
-418 347 -461 44 -42 99 -52 160 -28 48 20 60 34 363 436 286 379 336 457 336
525 0 82 -113 154 -194 124z"/>
<path d="M3320 6759 c-266 -4 -480 -11 -515 -18 -68 -13 -120 -49 -148 -102
-26 -49 -21 -186 9 -226 46 -62 92 -83 205 -95 140 -15 1719 -16 1882 -1 108
10 122 14 155 40 113 90 110 276 -5 357 -35 24 -55 30 -135 36 -134 12 -917
16 -1448 9z"/>
<path d="M2212 5938 c-32 -16 -183 -200 -381 -466 l-173 -231 -76 97 c-155
199 -192 232 -259 232 -59 0 -94 -20 -122 -70 -41 -72 -35 -103 41 -216 85
-126 261 -346 321 -401 37 -34 54 -43 82 -43 77 0 124 47 358 353 316 414 409
555 409 623 0 36 -28 83 -65 107 -32 21 -107 29 -135 15z"/>
<path d="M2935 5500 c-169 -6 -197 -13 -241 -62 -40 -43 -54 -84 -54 -158 0
-39 5 -81 11 -93 23 -46 74 -88 124 -103 83 -26 549 -37 1270 -30 653 5 788
12 853 43 105 50 126 260 34 345 -43 40 -85 49 -297 58 -214 10 -1435 10
-1700 0z"/>
<path d="M2235 4693 c-47 -11 -141 -121 -413 -480 -84 -112 -157 -205 -162
-208 -4 -3 -56 56 -115 130 -126 160 -164 190 -231 182 -83 -9 -150 -81 -141
-151 7 -47 94 -179 242 -364 137 -170 183 -212 233 -212 77 0 139 65 415 433
291 388 347 476 347 545 0 45 -40 91 -102 116 -39 17 -40 17 -73 9z"/>
<path d="M2777 4236 c-50 -18 -104 -60 -122 -96 -20 -38 -20 -171 -1 -208 8
-15 37 -49 64 -75 l49 -48 1024 3 c1159 4 1101 0 1159 79 72 99 52 254 -42
320 -27 20 -49 23 -227 30 -108 4 -572 8 -1031 8 -672 0 -842 -2 -873 -13z"/>
<path d="M5431 3688 c-220 -27 -535 -142 -728 -265 -307 -195 -575 -506 -719
-833 -111 -254 -137 -395 -138 -750 0 -228 2 -266 22 -358 95 -433 318 -791
672 -1078 438 -356 1036 -488 1580 -350 363 93 719 309 951 579 204 238 381
588 424 840 36 214 28 654 -16 837 -37 158 -139 381 -246 545 -129 195 -340
415 -506 526 -170 114 -443 232 -637 275 -186 41 -475 55 -659 32z m492 -452
c375 -68 715 -294 934 -621 91 -135 173 -332 200 -477 24 -130 24 -448 0 -571
-52 -263 -187 -506 -396 -714 -195 -194 -428 -320 -701 -379 -100 -21 -342
-30 -452 -15 -225 30 -458 121 -640 251 -106 76 -266 239 -336 341 -119 177
-208 400 -236 592 -85 571 195 1144 700 1432 138 79 339 148 509 175 83 12
312 5 418 -14z"/>
<path d="M6264 2635 c-50 -30 -129 -126 -439 -535 -292 -385 -345 -451 -356
-444 -5 2 -59 71 -121 152 -209 275 -241 302 -349 302 -105 -1 -187 -64 -208
-160 -16 -74 -14 -86 20 -150 38 -72 405 -561 488 -652 34 -37 81 -76 107 -89
42 -20 51 -21 97 -10 109 25 115 32 580 651 441 587 497 672 497 757 0 52 -16
86 -62 130 -76 73 -180 92 -254 48z"/>
<path d="M2195 3426 c-35 -16 -64 -51 -335 -410 l-203 -269 -26 30 c-14 16
-61 75 -104 131 -43 56 -97 116 -120 133 -37 27 -48 30 -95 27 -43 -4 -59 -11
-87 -38 -39 -37 -60 -89 -51 -124 14 -56 243 -369 363 -497 89 -94 127 -99
209 -27 93 81 578 726 643 855 32 64 28 112 -12 151 -51 50 -122 64 -182 38z"/>
<path d="M2713 2952 c-67 -61 -73 -75 -73 -167 0 -89 10 -112 77 -176 l48 -47
513 -4 514 -5 80 161 c44 89 96 185 114 214 19 29 34 57 34 62 0 6 -224 10
-627 10 l-628 0 -52 -48z"/>
</g>
</svg>
